HIERARCHY
ROOT Hips
{
	OFFSET 0.00000 0.00000 0.00000
	CHANNELS 6 Xposition Yposition Zposition Zrotation Yrotation Xrotation 
	JOINT LHipJoint
	{
		OFFSET 0 0 0
		CHANNELS 3 Zrotation Yrotation Xrotation
		JOINT LeftUpLeg
		{
			OFFSET 1.40252 -1.71424 0.59123
			CHANNELS 3 Zrotation Yrotation Xrotation
			JOINT LeftLeg
			{
				OFFSET 2.50071 -6.87065 0.00000
				CHANNELS 3 Zrotation Yrotation Xrotation
				JOINT LeftFoot
				{
					OFFSET 2.50834 -6.89162 0.00000
					CHANNELS 3 Zrotation Yrotation Xrotation
					JOINT LeftToeBase
					{
						OFFSET 0.21528 -0.59149 1.64448
						CHANNELS 3 Zrotation Yrotation Xrotation
						End Site
						{
							OFFSET 0.00000 -0.00000 0.87921
						}
					}
				}
			}
		}
	}
	JOINT RHipJoint
	{
		OFFSET 0 0 0
		CHANNELS 3 Zrotation Yrotation Xrotation
		JOINT RightUpLeg
		{
			OFFSET -1.53651 -1.71424 0.59123
			CHANNELS 3 Zrotation Yrotation Xrotation
			JOINT RightLeg
			{
				OFFSET -2.45783 -6.75285 0.00000
				CHANNELS 3 Zrotation Yrotation Xrotation
				JOINT RightFoot
				{
					OFFSET -2.51921 -6.92147 0.00000
					CHANNELS 3 Zrotation Yrotation Xrotation
					JOINT RightToeBase
					{
						OFFSET -0.21777 -0.59831 1.59676
						CHANNELS 3 Zrotation Yrotation Xrotation
						End Site
						{
							OFFSET -0.00000 -0.00000 0.85779
						}
					}
				}
			}
		}
	}
	JOINT LowerBack
	{
		OFFSET 0 0 0
		CHANNELS 3 Zrotation Yrotation Xrotation
		JOINT Spine
		{
			OFFSET 0.02212 2.07622 0.03776
			CHANNELS 3 Zrotation Yrotation Xrotation
			JOINT Spine1
			{
				OFFSET -0.00949 2.08009 -0.00123
				CHANNELS 3 Zrotation Yrotation Xrotation
				JOINT Neck
				{
					OFFSET 0 0 0
					CHANNELS 3 Zrotation Yrotation Xrotation
					JOINT Neck1
					{
						OFFSET 0.00288 1.67184 0.11155
						CHANNELS 3 Zrotation Yrotation Xrotation
						JOINT Head
						{
							OFFSET -0.02412 1.66997 -0.22040
							CHANNELS 3 Zrotation Yrotation Xrotation
							End Site
							{
								OFFSET -0.01026 1.69043 -0.08683
							}
						}
					}
				}
				JOINT LeftShoulder
				{
					OFFSET 0 0 0
					CHANNELS 3 Zrotation Yrotation Xrotation
					JOINT LeftArm
					{
						OFFSET 3.97941 0.74048 0.81462
						CHANNELS 3 Zrotation Yrotation Xrotation
						JOINT LeftForeArm
						{
							OFFSET 5.01834 -0.00000 -0.00000
							CHANNELS 3 Zrotation Yrotation Xrotation
							JOINT LeftHand
							{
								OFFSET 3.48690 -0.00000 0.00000
								CHANNELS 3 Zrotation Yrotation Xrotation
								JOINT LeftFingerBase
								{
									OFFSET 0 0 0
									CHANNELS 3 Zrotation Yrotation Xrotation
									JOINT LeftHandIndex1
									{
										OFFSET 0.76799 -0.00000 0.00000
										CHANNELS 3 Zrotation Yrotation Xrotation
										End Site
										{
											OFFSET 0.61917 -0.00000 0.00000
										}
									}
								}
								JOINT LThumb
								{
									OFFSET 0 0 0
									CHANNELS 3 Zrotation Yrotation Xrotation
									End Site
									{
										OFFSET 0.62863 -0.00000 0.62863
									}
								}
							}
						}
					}
				}
				JOINT RightShoulder
				{
					OFFSET 0 0 0
					CHANNELS 3 Zrotation Yrotation Xrotation
					JOINT RightArm
					{
						OFFSET -3.88702 1.02123 0.44091
						CHANNELS 3 Zrotation Yrotation Xrotation
						JOINT RightForeArm
						{
							OFFSET -4.70164 -0.00000 0.00000
							CHANNELS 3 Zrotation Yrotation Xrotation
							JOINT RightHand
							{
								OFFSET -3.49911 -0.00000 0.00000
								CHANNELS 3 Zrotation Yrotation Xrotation
								JOINT RightFingerBase
								{
									OFFSET 0 0 0
									CHANNELS 3 Zrotation Yrotation Xrotation
									JOINT RightHandIndex1
									{
										OFFSET -0.73933 -0.00000 0.00000
										CHANNELS 3 Zrotation Yrotation Xrotation
										End Site
										{
											OFFSET -0.59607 -0.00000 0.00000
										}
									}
								}
								JOINT RThumb
								{
									OFFSET 0 0 0
									CHANNELS 3 Zrotation Yrotation Xrotation
									End Site
									{
										OFFSET -0.60517 -0.00000 0.60517
									}
								}
							}
						}
					}
				}
			}
		}
	}
}
MOTION
Frames: 7
Frame Time: .0083333
-14.5641 17.5146 0.2986 0 0 0 0 0 0 -21 0 0 0 0 0 0 0 0 0 0 0 0 0 0 21 0 0 0 0 0 0 0 0 0 0 0 0 0 0 0 0 0 0 0 0 0 0 -16 0 0 21 0 0 11 0 0 0 -8 0 0 0 0 0 0 0 0 0 0 0 0 0 0 0 0 0 0 0 0 8 0 0 0 0 0 0 0 0 0 0 0 0 0 0 0 0 0
-14.5641 17.5146 0.2986 -28.2126 79.2825 -21.2377 0.0000 0.0000 0.0000 -13.8083 -0.8250 -3.9610 0.3052 3.5518 9.8189 1.8560 3.7501 -27.3032 2.2419 9.3528 26.9052 0.0000 0.0000 0.0000 24.4183 11.8118 -6.4152 -0.4523 -4.3148 11.9640 -0.4361 -0.5210 -12.6747 -0.0860 1.8917 -5.2065 6.8607 2.3019 -2.0889 1.2357 2.9996 -1.5554 -2.4993 1.4747 -0.1523 0.3581 -22.4215 -19.2692 -5.1267 -31.7300 38.7087 -7.6686 -13.5497 15.7783 0.0000 0.0000 0.0000 -95.5746 1.7692 25.5744 17.3296 -27.2902 -4.2373 -0.0000 0.0000 -5.0808 29.1099 43.4519 20.9544 -7.1250 0.0000 -0.0000 -17.7851 76.7495 -13.3158 0.0000 0.0000 0.0000 97.3291 -3.1372 17.3363 -15.2050 24.4309 -3.3103 0.0000 0.0000 29.1617 -22.7413 6.6957 -2.7979 7.1250 -0.0000 -0.0000 2.9514 -22.7283 1.5839
-14.5287 17.5364 0.3431 -31.7744 80.8210 -25.0366 0.0000 0.0000 0.0000 -13.6619 -0.6769 -3.9092 0.3063 3.5584 9.8376 1.7854 2.9190 -26.4317 1.8412 8.5272 24.3272 0.0000 0.0000 0.0000 24.5988 11.6017 -5.0745 -0.3712 -3.9136 10.8336 -0.4153 -2.3292 -13.2485 -0.0790 1.8128 -4.9886 6.3984 1.8196 -2.5033 1.2784 2.3143 -1.2776 -2.1989 1.1522 0.2843 0.8569 -21.1597 -21.6203 -5.1533 -30.0877 38.3026 -7.7797 -12.7469 16.0559 -0.0000 -0.0000 0.0000 -95.6660 1.5587 25.8246 17.3016 -27.2536 -4.2245 -0.0000 0.0000 -4.9679 28.7979 43.2893 20.6526 -7.1250 0.0000 -0.0000 -17.9029 76.4849 -13.3071 -0.0000 -0.0000 0.0000 97.2440 -2.9638 17.0590 -15.1824 24.3996 -3.3009 0.0000 0.0000 29.3842 -22.8756 6.3212 -2.6597 7.1250 -0.0000 -0.0000 2.8480 -23.1261 1.5024
-14.4895 17.5594 0.3883 -36.7994 82.2428 -30.2485 0.0000 0.0000 0.0000 -13.4695 -0.5538 -3.8710 0.3051 3.5514 9.8178 1.7181 2.1277 -25.6108 1.4459 7.6014 21.5098 0.0000 0.0000 0.0000 24.8613 11.6036 -3.7145 -0.2991 -3.5166 9.7206 -0.3757 -4.2349 -13.9189 -0.0520 1.4716 -4.0474 5.8577 1.3168 -2.9583 1.3730 1.6112 -1.0753 -1.8106 0.8160 0.6716 2.6539 -19.6007 -23.4086 -6.2640 -27.9336 37.3095 -8.0663 -11.9282 15.4931 0.0000 0.0000 0.0000 -95.7925 1.5168 25.9745 17.2806 -27.2262 -4.2149 -0.0000 0.0000 -4.8813 28.5180 43.2251 20.4118 -7.1250 0.0000 -0.0000 -18.1929 76.3205 -13.4635 0.0000 0.0000 0.0000 97.0949 -2.8480 16.9171 -15.0665 24.2386 -3.2532 0.0000 0.0000 29.5625 -23.1620 6.2732 -2.6764 7.1250 -0.0000 -0.0000 2.6361 -23.1634 1.3881
-14.4423 17.6141 0.4287 -49.1017 84.4742 -42.5360 0.0000 0.0000 0.0000 -13.4322 -0.9015 -4.0610 0.3045 3.5477 9.8076 1.6049 1.0110 -24.3362 0.8926 6.0217 16.8475 0.0000 0.0000 0.0000 24.9922 11.9422 -1.8791 -0.2039 -2.9078 8.0221 -0.2612 -7.4380 -15.1082 -0.0208 0.9306 -2.5579 5.1122 0.4486 -3.7365 1.4216 0.4157 -0.9329 -1.3841 0.2319 1.1601 2.1873 -19.0007 -21.0043 -2.8731 -27.4480 32.5365 -5.9875 -11.7790 13.6741 0.0000 -0.0000 0.0000 -95.9425 1.4630 26.0208 17.2041 -27.1261 -4.1800 -0.0000 0.0000 -4.8041 28.3767 43.0871 20.2539 -7.1250 0.0000 -0.0000 -18.1030 76.1439 -13.3298 0.0000 -0.0000 0.0000 96.9220 -2.7105 16.8683 -14.9103 24.0210 -3.1893 0.0000 0.0000 29.7380 -23.6461 6.3916 -2.7906 7.1250 -0.0000 -0.0000 2.2809 -23.0093 1.2088
-14.5292 17.6014 0.2432 -34.5555 84.0945 -25.7180 0.0000 0.0000 0.0000 -15.5342 -3.0580 -6.6730 0.3164 3.6161 9.9992 1.3417 4.5844 -23.9623 0.3995 4.0581 11.2402 0.0000 0.0000 0.0000 22.1889 10.5573 -7.2740 -0.3259 -3.6693 10.1481 -0.4004 -3.5465 -13.7868 -0.0469 1.3977 -3.8439 6.7185 1.1157 -4.5085 0.5175 1.2395 -1.8523 -3.1690 0.6159 0.7424 4.6078 -18.2965 -17.2219 -2.0922 -26.3341 24.9506 -4.6466 -11.8211 9.8293 -0.0000 -0.0000 0.0000 -95.9361 1.4861 26.4289 17.1548 -27.0614 -4.1575 -0.0000 0.0000 -4.8912 28.4369 42.9689 20.2595 -7.1250 0.0000 -0.0000 -17.7514 76.0619 -13.0373 -0.0000 -0.0000 0.0000 96.8825 -2.6103 16.6205 -14.7764 23.8337 -3.1350 0.0000 0.0000 29.9276 -23.5180 6.1979 -2.6900 7.1250 -0.0000 -0.0000 2.3722 -23.2267 1.2454
-14.5685 17.6002 0.1678 -25.1848 82.8749 -15.2881 0.0000 0.0000 0.0000 -16.4442 -3.3863 -7.8284 0.2956 3.4960 9.6628 1.1065 6.9330 -23.5136 0.1563 2.5473 7.0208 0.0000 0.0000 0.0000 21.0660 10.5478 -9.8582 -0.4193 -4.1563 11.5169 -0.4448 -1.3680 -13.1695 -0.0526 1.4796 -4.0696 7.2911 1.9148 -4.7147 -0.0151 2.2903 -2.2888 -3.9811 1.1219 0.5552 15.8095 -16.5923 -10.8683 -12.3273 -23.4609 9.2765 -6.3559 -11.8447 1.1952 -0.0000 0.0000 0.0000 -95.7700 1.5689 27.2509 17.1453 -27.0489 -4.1532 -0.0000 0.0000 -5.0673 28.5540 43.0912 20.3931 -7.1250 0.0000 -0.0000 -17.8386 76.2154 -13.1590 -0.0000 0.0000 0.0000 96.9803 -2.5070 16.1500 -14.6557 23.6642 -3.0864 0.0000 0.0000 30.0536 -22.9788 5.8832 -2.4888 7.1250 -0.0000 -0.0000 2.7671 -23.5950 1.4298
